<svg class="svg-standalone-icon" width="100%" viewBox="201.97463293222336 125.8346007752965 146.05073413555328 146.05073413555328"><g data-paper-data="{&quot;fillRule&quot;:&quot;evenodd&quot;,&quot;fillRuleOriginal&quot;:&quot;evenodd&quot;,&quot;isIcon&quot;:true,&quot;iconStyle&quot;:&quot;standalone&quot;,&quot;selectedEffects&quot;:{&quot;container&quot;:&quot;&quot;,&quot;transformation&quot;:&quot;&quot;,&quot;pattern&quot;:&quot;&quot;},&quot;bounds&quot;:{&quot;x&quot;:201.97463293222336,&quot;y&quot;:125.8346007752965,&quot;width&quot;:146.05073413555328,&quot;height&quot;:146.05073413555328},&quot;iconType&quot;:&quot;icon&quot;,&quot;rawIconId&quot;:&quot;1371441&quot;,&quot;isDetailed&quot;:false,&quot;suitableAsStandaloneIcon&quot;:true}" fill-rule="evenodd"><path d="M246.09473,171.47546c15.67672,0 29.86738,6.45362 40.08362,16.83052c2.56684,-5.59192 4.03465,-11.78995 4.03465,-18.35127c0,-24.36674 -19.75336,-44.1201 -44.11828,-44.1201c-24.36674,0 -44.1201,19.75336 -44.1201,44.1201c0,6.56133 1.46781,12.75753 4.03465,18.35127c10.21625,-10.3769 24.4069,-16.83052 40.08545,-16.83052zM303.90527,125.8346c-6.56133,0 -12.75753,1.46781 -18.35675,4.03465c10.38238,10.21625 16.836,24.4069 16.836,40.08545c0,15.67672 -6.45362,29.86738 -16.836,40.08362c5.59739,2.56684 11.79542,4.03465 18.35675,4.03465c24.36674,0 44.1201,-19.75336 44.1201,-44.11828c0,-24.36674 -19.75336,-44.1201 -44.1201,-44.1201zM247.61549,227.76523c0,-15.67672 6.45362,-29.86738 16.83052,-40.08362c-5.59192,-2.56684 -11.78995,-4.03465 -18.35127,-4.03465c-24.36674,0 -44.1201,19.75336 -44.1201,44.11828c0,24.36674 19.75336,44.1201 44.1201,44.1201c6.56133,0 12.75753,-1.46781 18.35127,-4.03465c-10.3769,-10.21625 -16.83052,-24.4069 -16.83052,-40.08545zM303.90527,226.24448c-15.67672,0 -29.86738,-6.45362 -40.08362,-16.836c-2.56684,5.59739 -4.03465,11.79542 -4.03465,18.35675c0,24.36674 19.75336,44.1201 44.11828,44.1201c24.36674,0 44.1201,-19.75336 44.1201,-44.1201c0,-6.56133 -1.46781,-12.75753 -4.03465,-18.35675c-10.21625,10.38238 -24.4069,16.836 -40.08545,16.836z" data-paper-data="{&quot;isPathIcon&quot;:true}"></path></g></svg>